<?xml version="1.0" encoding="utf-8"?>
<!-- Generator: Adobe Illustrator 18.1.0, SVG Export Plug-In . SVG Version: 6.00 Build 0)  -->
<svg version="1.1" id="Calque_1" xmlns="http://www.w3.org/2000/svg" xmlns:xlink="http://www.w3.org/1999/xlink" x="0px" y="0px"
	 viewBox="0 0 155.4 41.1" enable-background="new 0 0 155.4 41.1" xml:space="preserve">
<g>
	<path fill="#535A5E" d="M7.3,8.8h4.5c0.5,0,0.9,0.1,1.2,0.3c0.3,0.2,0.5,0.5,0.7,0.9l4.7,12.9c0.2,0.6,0.4,1.2,0.6,1.8
		c0.2,0.7,0.4,1.4,0.6,2.1c0.2-0.7,0.3-1.4,0.5-2.1c0.2-0.7,0.4-1.3,0.6-1.8L25.3,10c0.1-0.3,0.3-0.6,0.6-0.8
		c0.3-0.2,0.7-0.4,1.2-0.4h4.5l-9.6,24h-5L7.3,8.8z"/>
	<path fill="#535A5E" d="M40.5,24v8.9h-5.6v-24h7.8c1.7,0,3.2,0.2,4.4,0.5c1.2,0.4,2.2,0.9,3,1.5c0.8,0.6,1.3,1.4,1.7,2.3
		c0.4,0.9,0.5,1.8,0.5,2.8c0,0.8-0.1,1.5-0.3,2.2c-0.2,0.7-0.5,1.3-0.9,1.9c-0.4,0.6-0.9,1.1-1.5,1.6c-0.6,0.5-1.3,0.8-2.1,1.1
		c0.4,0.2,0.7,0.4,1,0.7c0.3,0.3,0.6,0.6,0.8,1l5.1,8.4h-5c-0.9,0-1.6-0.4-2-1.1l-4-7c-0.2-0.3-0.4-0.5-0.6-0.7
		c-0.2-0.1-0.6-0.2-1-0.2H40.5z M40.5,20.1h2.2c0.8,0,1.4-0.1,1.9-0.3c0.5-0.2,1-0.5,1.3-0.8c0.3-0.3,0.6-0.7,0.7-1.2
		c0.2-0.5,0.2-0.9,0.2-1.5c0-1.1-0.3-1.9-1-2.5c-0.7-0.6-1.8-0.9-3.2-0.9h-2.2V20.1z"/>
	<path fill="#535A5E" d="M73.6,8.8v4.3h-9.9v5.6h7.6v4.1h-7.6v5.7h9.9v4.3H58.1v-24H73.6z"/>
	<path fill="#E84740" d="M92.2,23.5h2.5v2.9c0,0.3-0.1,0.5-0.3,0.7c-0.2,0.2-0.4,0.3-0.7,0.3h-1.5v5.5h-4.5v-5.5h-9.7
		c-0.3,0-0.6-0.1-0.9-0.3c-0.3-0.2-0.4-0.4-0.5-0.7l-0.5-2.5L87.3,8.8h4.9V23.5z M87.7,17.3c0-0.4,0-0.8,0-1.2
		c0-0.4,0.1-0.9,0.1-1.4l-6.4,8.9h6.2V17.3z"/>
	<path fill="#535A5E" d="M114,8.8v4.3h-9.9v5.6h7.6v4.1h-7.6v5.7h9.9v4.3H98.5v-24H114z"/>
	<path fill="#535A5E" d="M124.5,32.9h-5.6v-24h5.6V32.9z"/>
	<path fill="#535A5E" d="M146.4,26.7c0.1,0,0.3,0,0.4,0.1c0.1,0,0.3,0.1,0.4,0.3l2.2,2.3c-1,1.3-2.2,2.2-3.6,2.9
		c-1.5,0.6-3.2,1-5.2,1c-1.8,0-3.5-0.3-4.9-0.9c-1.4-0.6-2.7-1.5-3.7-2.6c-1-1.1-1.8-2.4-2.3-3.9c-0.5-1.5-0.8-3.1-0.8-4.9
		c0-1.8,0.3-3.4,0.9-4.9c0.6-1.5,1.5-2.8,2.6-3.9c1.1-1.1,2.4-1.9,4-2.5c1.5-0.6,3.2-0.9,5.1-0.9c0.9,0,1.8,0.1,2.5,0.2
		c0.8,0.2,1.5,0.4,2.2,0.7c0.7,0.3,1.3,0.6,1.9,1c0.6,0.4,1.1,0.8,1.6,1.3l-1.9,2.5c-0.1,0.2-0.3,0.3-0.4,0.4
		c-0.2,0.1-0.4,0.2-0.7,0.2c-0.2,0-0.4,0-0.6-0.1c-0.2-0.1-0.4-0.2-0.6-0.3c-0.2-0.1-0.4-0.3-0.7-0.4c-0.2-0.1-0.5-0.3-0.8-0.4
		c-0.3-0.1-0.7-0.2-1.1-0.3c-0.4-0.1-0.9-0.1-1.5-0.1c-1,0-1.9,0.2-2.8,0.5c-0.8,0.4-1.6,0.9-2.2,1.5c-0.6,0.7-1.1,1.5-1.4,2.4
		c-0.3,0.9-0.5,2-0.5,3.2c0,1.2,0.2,2.3,0.5,3.3c0.3,1,0.8,1.8,1.4,2.4c0.6,0.7,1.3,1.2,2,1.5c0.8,0.3,1.6,0.5,2.5,0.5
		c0.5,0,1,0,1.4-0.1c0.4,0,0.8-0.1,1.2-0.3c0.4-0.1,0.7-0.3,1-0.5c0.3-0.2,0.7-0.4,1-0.7c0.1-0.1,0.3-0.2,0.4-0.3
		C146.1,26.7,146.3,26.7,146.4,26.7z"/>
</g>
</svg>
